<svg xmlns="http://www.w3.org/2000/svg" width="23.315" height="23.315" viewBox="0 0 23.315 23.315">
  <path id="Icon_ionic-ios-checkmark-circle" data-name="Icon ionic-ios-checkmark-circle" d="M15.032,3.375A11.657,11.657,0,1,0,26.69,15.032,11.656,11.656,0,0,0,15.032,3.375ZM21,11.81l-7.493,7.527H13.5a1.012,1.012,0,0,1-.65.308.981.981,0,0,1-.656-.319L9.058,16.187a.223.223,0,0,1,0-.319l1-1a.217.217,0,0,1,.314,0l2.488,2.488L19.7,10.47a.221.221,0,0,1,.157-.067h0a.2.2,0,0,1,.157.067l.981,1.014A.221.221,0,0,1,21,11.81Z" transform="translate(-3.375 -3.375)" fill="#1f1f2b"/>
</svg>
