<svg xmlns="http://www.w3.org/2000/svg" width="209.487" height="129.443" viewBox="0 0 209.487 129.443">
  <g id="Group_2" data-name="Group 2" transform="translate(-82.951 -293.201)">
    <path id="Icon_awesome-lock" data-name="Icon awesome-lock" d="M54.464,30.5H51.2V20.7A20.7,20.7,0,1,0,9.8,20.7v9.8H6.536A6.537,6.537,0,0,0,0,37.036V63.179a6.537,6.537,0,0,0,6.536,6.536H54.464A6.537,6.537,0,0,0,61,63.179V37.036A6.537,6.537,0,0,0,54.464,30.5ZM40.3,30.5H20.7V20.7a9.8,9.8,0,1,1,19.607,0Z" transform="translate(157 320)"/>
    <path id="Icon_metro-wifi-connect" data-name="Icon metro-wifi-connect" d="M64.722,52.3a39.1,39.1,0,0,1,27.725,11.5L83.2,73.047a26.109,26.109,0,0,0-36.966,0L37,63.805A39.1,39.1,0,0,1,64.722,52.3Zm-46.23-7a65.379,65.379,0,0,1,92.459,0l-9.246,9.246a52.3,52.3,0,0,0-73.967,0ZM100.351,7.2a91.215,91.215,0,0,1,29.092,19.613L120.2,36.054a78.454,78.454,0,0,0-110.951,0L0,26.808A91.622,91.622,0,0,1,100.351,7.2Zm-42.168,77.8a6.538,6.538,0,1,1,6.538,6.538A6.538,6.538,0,0,1,58.184,84.992Z" transform="translate(292.438 293.201) rotate(90)"/>
    <path id="Icon_metro-wifi-connect-2" data-name="Icon metro-wifi-connect" d="M64.722,52.3a39.1,39.1,0,0,1,27.725,11.5L83.2,73.047a26.109,26.109,0,0,0-36.966,0L37,63.805A39.1,39.1,0,0,1,64.722,52.3Zm-46.23-7a65.379,65.379,0,0,1,92.459,0l-9.246,9.246a52.3,52.3,0,0,0-73.967,0ZM100.351,7.2a91.215,91.215,0,0,1,29.092,19.613L120.2,36.054a78.454,78.454,0,0,0-110.951,0L0,26.808A91.622,91.622,0,0,1,100.351,7.2Zm-42.168,77.8a6.538,6.538,0,1,1,6.538,6.538A6.538,6.538,0,0,1,58.184,84.992Z" transform="translate(82.951 422.643) rotate(-90)"/>
  </g>
</svg>
