<svg xmlns="http://www.w3.org/2000/svg" width="160.902" height="160.902" viewBox="0 0 160.902 160.902">
  <path id="Icon_metro-qrcode" data-name="Icon metro-qrcode" d="M52.853,11.984H12.627V52.21H52.853ZM62.909,1.928V62.266H2.571V1.928ZM22.684,22.041H42.8V42.154H22.684ZM153.417,11.984H113.191V52.21h40.226V11.984ZM163.473,1.928V62.266H103.135V1.928h60.338ZM123.248,22.041H143.36V42.154H123.248ZM52.853,112.548H12.627v40.226H52.853Zm10.056-10.056V162.83H2.571V102.492ZM22.684,122.6H42.8v20.113H22.684ZM72.966,1.928H83.022V11.984H72.966ZM83.022,11.984H93.078V22.041H83.022ZM72.966,22.041H83.022V32.1H72.966ZM83.022,32.1H93.078V42.154H83.022ZM72.966,42.154H83.022V52.21H72.966ZM83.022,52.21H93.078V62.266H83.022ZM72.966,62.266H83.022V72.323H72.966Zm0,20.113H83.022V92.436H72.966ZM83.022,92.436H93.078v10.056H83.022ZM72.966,102.492H83.022v10.056H72.966Zm10.056,10.056H93.078V122.6H83.022ZM72.966,122.6H83.022v10.056H72.966Zm10.056,10.056H93.078v10.056H83.022ZM72.966,142.718H83.022v10.056H72.966Zm10.056,10.056H93.078V162.83H83.022Zm70.395-70.395h10.056V92.436H153.417Zm-140.79,0H22.684V92.436H12.627ZM22.684,72.323H32.74V82.379H22.684Zm-20.113,0H12.627V82.379H2.571Zm40.226,0H52.853V82.379H42.8ZM52.853,82.379H62.909V92.436H52.853ZM62.909,72.323H72.966V82.379H62.909ZM93.078,82.379h10.056V92.436H93.078Zm10.056-10.056h10.056V82.379H103.135Zm10.056,10.056h10.056V92.436H113.191Zm10.056-10.056H133.3V82.379H123.248ZM133.3,82.379H143.36V92.436H133.3ZM143.36,72.323h10.056V82.379H143.36Zm10.056,30.169h10.056v10.056H153.417Zm-60.338,0h10.056v10.056H93.078Zm10.056-10.056h10.056v10.056H103.135Zm10.056,10.056h10.056v10.056H113.191Zm20.113,0H143.36v10.056H133.3ZM143.36,92.436h10.056v10.056H143.36ZM153.417,122.6h10.056v10.056H153.417Zm-60.338,0h10.056v10.056H93.078Zm10.056-10.056h10.056V122.6H103.135Zm20.113,0H133.3V122.6H123.248ZM133.3,122.6H143.36v10.056H133.3Zm10.056-10.056h10.056V122.6H143.36Zm10.056,30.169h10.056v10.056H153.417Zm-50.282-10.056h10.056v10.056H103.135Zm10.056,10.056h10.056v10.056H113.191Zm10.056-10.056H133.3v10.056H123.248ZM133.3,142.718H143.36v10.056H133.3Zm-30.169,10.056h10.056v10.056H103.135Zm20.113,0H133.3v10.056H123.248Zm20.113,0h10.056v10.056H143.36Z" transform="translate(-2.571 -1.928)"/>
</svg>
