<svg xmlns="http://www.w3.org/2000/svg" width="23.315" height="23.315" viewBox="0 0 23.315 23.315">
  <g id="Icon_ionic-ios-checkmark-circle-outline" data-name="Icon ionic-ios-checkmark-circle-outline" transform="translate(-3.375 -3.375)">
    <path id="Path_15" data-name="Path 15" d="M22.439,13.288l-.986-1.014a.212.212,0,0,0-.157-.067h0a.2.2,0,0,0-.157.067L14.3,19.161l-2.488-2.488a.217.217,0,0,0-.314,0l-1,1a.223.223,0,0,0,0,.319l3.139,3.139a.993.993,0,0,0,.656.319,1.04,1.04,0,0,0,.65-.308h.006l7.493-7.532A.24.24,0,0,0,22.439,13.288Z" transform="translate(-1.432 -1.792)" fill="#fff"/>
    <path id="Path_16" data-name="Path 16" d="M15.032,4.944A10.084,10.084,0,1,1,7.9,7.9a10.021,10.021,0,0,1,7.135-2.954m0-1.569A11.657,11.657,0,1,0,26.69,15.032,11.656,11.656,0,0,0,15.032,3.375Z" fill="#fff"/>
  </g>
</svg>
