<svg xmlns="http://www.w3.org/2000/svg" width="209.487" height="129.443" viewBox="0 0 209.487 129.443">
  <g id="Group_2" data-name="Group 2" transform="translate(-82.951 -293.201)">
    <path id="Icon_metro-wifi-connect" data-name="Icon metro-wifi-connect" d="M64.722,52.3a39.1,39.1,0,0,1,27.725,11.5L83.2,73.047a26.109,26.109,0,0,0-36.966,0L37,63.805A39.1,39.1,0,0,1,64.722,52.3Zm-46.23-7a65.379,65.379,0,0,1,92.459,0l-9.246,9.246a52.3,52.3,0,0,0-73.967,0ZM100.351,7.2a91.215,91.215,0,0,1,29.092,19.613L120.2,36.054a78.454,78.454,0,0,0-110.951,0L0,26.808A91.622,91.622,0,0,1,100.351,7.2Zm-42.168,77.8a6.538,6.538,0,1,1,6.538,6.538A6.538,6.538,0,0,1,58.184,84.992Z" transform="translate(292.438 293.201) rotate(90)" fill="#1f1f2b"/>
    <path id="Icon_metro-wifi-connect-2" data-name="Icon metro-wifi-connect" d="M64.722,52.3a39.1,39.1,0,0,1,27.725,11.5L83.2,73.047a26.109,26.109,0,0,0-36.966,0L37,63.805A39.1,39.1,0,0,1,64.722,52.3Zm-46.23-7a65.379,65.379,0,0,1,92.459,0l-9.246,9.246a52.3,52.3,0,0,0-73.967,0ZM100.351,7.2a91.215,91.215,0,0,1,29.092,19.613L120.2,36.054a78.454,78.454,0,0,0-110.951,0L0,26.808A91.622,91.622,0,0,1,100.351,7.2Zm-42.168,77.8a6.538,6.538,0,1,1,6.538,6.538A6.538,6.538,0,0,1,58.184,84.992Z" transform="translate(82.951 422.644) rotate(-90)" fill="#1f1f2b"/>
    <circle id="Ellipse_2" data-name="Ellipse 2" cx="53" cy="53" r="53" transform="translate(135 305)" fill="#ff4b33"/>
    <path id="Icon_awesome-lock-open" data-name="Icon awesome-lock-open" d="M58.255,0a21.044,21.044,0,0,0-20.84,21.115v9.7H6.6a6.6,6.6,0,0,0-6.6,6.6V63.826a6.6,6.6,0,0,0,6.6,6.6h48.42a6.6,6.6,0,0,0,6.6-6.6V37.415a6.6,6.6,0,0,0-6.6-6.6h-6.6v-9.78a9.9,9.9,0,1,1,19.808-.124v11a3.293,3.293,0,0,0,3.3,3.3h4.4a3.293,3.293,0,0,0,3.3-3.3v-11A20.932,20.932,0,0,0,58.255,0Z" transform="translate(152.718 322.768)" fill="#1f1f2b"/>
  </g>
</svg>
